<?xml version="1.0" encoding="utf-8"?>
<!-- Generator: Adobe Illustrator 16.0.0, SVG Export Plug-In . SVG Version: 6.00 Build 0)  -->
<!DOCTYPE svg PUBLIC "-//W3C//DTD SVG 1.1//EN" "http://www.w3.org/Graphics/SVG/1.1/DTD/svg11.dtd">
<svg version="1.1" id="Capa_1" xmlns="http://www.w3.org/2000/svg" xmlns:xlink="http://www.w3.org/1999/xlink" x="0px" y="0px"
	 width="181.9px" height="136.5px" viewBox="0 60.7 181.9 136.5" enable-background="new 0 60.7 181.9 136.5" xml:space="preserve">
<g>
	<path d="M181.9,174.4c0,4-1.1,7.7-2.9,10.9L121.6,121l56.8-49.7c2.2,3.5,3.5,7.6,3.5,12.1V174.4L181.9,174.4z M91,132.7L170,63.5
		c-3.2-1.8-6.9-2.9-10.8-2.9H22.7c-3.9,0-7.6,1.1-10.8,2.9L91,132.7z M113,128.5l-18.3,16c-1.1,0.9-2.4,1.4-3.7,1.4
		s-2.7-0.5-3.7-1.4l-18.3-16l-58.2,65.1c3.5,2.2,7.6,3.5,12,3.5h136.5c4.4,0,8.5-1.3,12-3.5L113,128.5z M3.5,71.3
		C1.3,74.8,0,78.9,0,83.4v91c0,4,1.1,7.7,2.9,10.9L60.4,121L3.5,71.3z"/>
</g>
</svg>
