<?xml version="1.0" encoding="utf-8"?>
<!-- Generator: Adobe Illustrator 16.0.0, SVG Export Plug-In . SVG Version: 6.00 Build 0)  -->
<!DOCTYPE svg PUBLIC "-//W3C//DTD SVG 1.1//EN" "http://www.w3.org/Graphics/SVG/1.1/DTD/svg11.dtd">
<svg version="1.1" id="Capa_1" xmlns="http://www.w3.org/2000/svg" xmlns:xlink="http://www.w3.org/1999/xlink" x="0px" y="0px"
	 width="181.9px" height="182.5px" viewBox="0 0 181.9 182.5" enable-background="new 0 0 181.9 182.5" xml:space="preserve">
<g>
	<path d="M70,113c16.4,16.2,35.3,31.8,42.7,24.3c10.6-10.7,17.2-20.1,40.8-1.2c23.6,18.9,5.6,31.5-4.7,41.9
		c-11.9,12-56.5,0.8-100.7-43C4,91.1-7.5,46.7,4.4,34.7c10.3-10.4,22.9-28.5,41.9-5c19,23.5,9.7,30.1-0.9,40.8
		C38,78,53.6,96.8,70,113z M93.7,35.5c0,0-4.9-0.8-8.4,2.7c-3.6,3.6-3.7,9.7,0,13.4c2.2,2.2,5.3,2.7,5.3,2.7
		c6.1,1.1,15.3,3.1,25,12.8c9.8,9.8,11.7,18.9,12.8,25c0,0,0.5,3.1,2.7,5.3c3.7,3.7,9.9,3.6,13.4,0c3.5-3.5,2.7-8.4,2.7-8.4
		c-1.9-12.3-7.9-25.2-18.2-35.5C118.9,43.4,106.1,37.5,93.7,35.5z M140,42.9c17.9,17.9,25.5,38.2,23.1,54.7c0,0-0.9,5.2,2.5,8.6
		c3.8,3.8,9.9,3.6,13.5,0c2.3-2.3,2.8-6.1,2.8-6.1c2.1-14.2-0.5-42.9-28.4-70.8C125.6,1.5,97-1.1,82.7,1c0,0-3.8,0.5-6.1,2.8
		c-3.6,3.6-3.8,9.7,0,13.5c3.4,3.4,8.6,2.5,8.6,2.5C101.8,17.3,122.1,25,140,42.9z"/>
</g>
</svg>
